<?xml version="1.0" standalone="no"?>
<!DOCTYPE svg PUBLIC "-//W3C//DTD SVG 1.1//EN" "http://www.w3.org/Graphics/SVG/1.1/DTD/svg11.dtd">
<svg version="1.1" xmlns="http://www.w3.org/2000/svg" viewBox="0 0 400 530" width="400" height="530"><!-- svg-source:excalidraw --><metadata></metadata><defs><style class="style-fonts">
      </style></defs><g stroke-linecap="round" transform="translate(10 10) rotate(0 188 38.5)"><path d="M19.25 0 C110.64 -1.96, 204.23 -1.13, 356.75 0 M19.25 0 C87.56 0.83, 157.08 -0.29, 356.75 0 M356.75 0 C369.31 1.4, 375.76 7.81, 376 19.25 M356.75 0 C369.08 0.26, 377.97 7.2, 376 19.25 M376 19.25 C376.07 26.49, 375.33 34.98, 376 57.75 M376 19.25 C374.96 28.5, 374.81 35.84, 376 57.75 M376 57.75 C376.11 71.25, 370.07 77.34, 356.75 77 M376 57.75 C376.62 71.77, 368.82 77.51, 356.75 77 M356.75 77 C239.62 77.5, 124.2 77.36, 19.25 77 M356.75 77 C243.31 77.19, 129.04 76.96, 19.25 77 M19.25 77 C5.89 76.74, -0.49 71.6, 0 57.75 M19.25 77 C8.18 78.79, -0.36 71.01, 0 57.75 M0 57.75 C-0.86 49.16, 2.36 39.16, 0 19.25 M0 57.75 C-0.2 45.19, -0.18 32.06, 0 19.25 M0 19.25 C-1.86 7.08, 5.12 -1.93, 19.25 0 M0 19.25 C0.2 8.52, 6.79 0.86, 19.25 0" stroke="#d3d3d3" stroke-width="2" fill="none"></path></g><g stroke-linecap="round" transform="translate(14 443) rotate(0 188 38.5)"><path d="M19.25 0 C152.85 -1.29, 283.69 -2.36, 356.75 0 M19.25 0 C101.13 -0.33, 183.79 -0.68, 356.75 0 M356.75 0 C368.54 -1.17, 376.1 7.06, 376 19.25 M356.75 0 C368.31 -0.52, 377.22 7.65, 376 19.25 M376 19.25 C376.4 32.48, 377.28 44.93, 376 57.75 M376 19.25 C375.97 33.3, 376.67 44.69, 376 57.75 M376 57.75 C375.88 71.96, 369.13 78.94, 356.75 77 M376 57.75 C377.61 69.56, 368.7 75.57, 356.75 77 M356.75 77 C246.62 78.53, 136.43 77.76, 19.25 77 M356.75 77 C253.57 77.26, 148.97 76.29, 19.25 77 M19.25 77 C5.1 76.85, 1.16 71.38, 0 57.75 M19.25 77 C8.65 76.67, -0.58 69.73, 0 57.75 M0 57.75 C0.17 44.75, 1.95 29.89, 0 19.25 M0 57.75 C-0.13 47.29, -1.26 37.43, 0 19.25 M0 19.25 C1.62 5.05, 6.19 0.09, 19.25 0 M0 19.25 C0.23 8.25, 7 1.12, 19.25 0" stroke="#d3d3d3" stroke-width="2" fill="none"></path></g><g stroke-linecap="round" transform="translate(11 91) rotate(0 44 30.5)"><path d="M15.25 0 C30.85 -1.52, 50.5 -0.76, 72.75 0 M15.25 0 C27.94 -0.26, 40.83 0.62, 72.75 0 M72.75 0 C81.89 -0.91, 87.69 5.08, 88 15.25 M72.75 0 C82.78 -2.22, 88.6 3.36, 88 15.25 M88 15.25 C87.98 21.01, 86.23 28.74, 88 45.75 M88 15.25 C88.55 22.22, 88.1 30.91, 88 45.75 M88 45.75 C88.85 57.36, 82.61 61.64, 72.75 61 M88 45.75 C87.95 54.47, 84.56 59.28, 72.75 61 M72.75 61 C49.85 60.96, 27.53 61.27, 15.25 61 M72.75 61 C51.47 60.54, 32.17 62.15, 15.25 61 M15.25 61 C4.78 59.54, -0.26 54.63, 0 45.75 M15.25 61 C6.24 60.01, -1.53 56.58, 0 45.75 M0 45.75 C1.51 32.44, 0.67 23.83, 0 15.25 M0 45.75 C0.95 33.59, -0.48 21.26, 0 15.25 M0 15.25 C0.35 3.83, 3.13 0.38, 15.25 0 M0 15.25 C-1.37 2.8, 4.82 1.04, 15.25 0" stroke="#d3d3d3" stroke-width="2" fill="none"></path></g><g stroke-linecap="round" transform="translate(11 157) rotate(0 44 30.5)"><path d="M15.25 0 C34.82 1.88, 56.74 2.09, 72.75 0 M15.25 0 C27.31 -1.09, 38.32 0.36, 72.75 0 M72.75 0 C83.93 -0.28, 86.99 6.87, 88 15.25 M72.75 0 C84.59 -2.04, 87.32 3.43, 88 15.25 M88 15.25 C88.41 24.31, 85.94 30.49, 88 45.75 M88 15.25 C88.83 22.54, 87.76 30.85, 88 45.75 M88 45.75 C89.82 55.83, 81.86 61.49, 72.75 61 M88 45.75 C88.53 54.46, 84.1 60.58, 72.75 61 M72.75 61 C49.74 58.91, 29.31 59.02, 15.25 61 M72.75 61 C54.52 59.69, 37.73 60.93, 15.25 61 M15.25 61 C4.32 60.01, 1.66 54.37, 0 45.75 M15.25 61 C5.89 60.55, 1.25 55.3, 0 45.75 M0 45.75 C1.89 37.84, 1.81 27.92, 0 15.25 M0 45.75 C0.13 38.31, -0.75 29.83, 0 15.25 M0 15.25 C-0.3 3.19, 6.03 1.79, 15.25 0 M0 15.25 C0.16 5.23, 5.68 0.79, 15.25 0" stroke="#d3d3d3" stroke-width="2" fill="none"></path></g><g stroke-linecap="round" transform="translate(12 225) rotate(0 44 30.5)"><path d="M15.25 0 C38.06 2.33, 59.12 0.67, 72.75 0 M15.25 0 C34.09 0.54, 52.52 0.68, 72.75 0 M72.75 0 C84.06 0.65, 87.34 5.79, 88 15.25 M72.75 0 C80.82 -1.35, 85.79 6.03, 88 15.25 M88 15.25 C89.26 25.84, 88.33 37.6, 88 45.75 M88 15.25 C87.33 21.56, 88.26 29.52, 88 45.75 M88 45.75 C87.4 56.17, 82.31 60.74, 72.75 61 M88 45.75 C85.93 54.56, 82.37 60.36, 72.75 61 M72.75 61 C55.82 59.03, 36.5 59.62, 15.25 61 M72.75 61 C50.91 61.48, 31.15 60.75, 15.25 61 M15.25 61 C5.26 59.69, 1.69 56.9, 0 45.75 M15.25 61 C6.1 58.92, -0.84 54.59, 0 45.75 M0 45.75 C1.06 35.33, 0.15 22.57, 0 15.25 M0 45.75 C0.78 37.02, -0.74 29.88, 0 15.25 M0 15.25 C0.26 3.24, 6.44 -1.52, 15.25 0 M0 15.25 C2.11 4.67, 6.93 1.39, 15.25 0" stroke="#d3d3d3" stroke-width="2" fill="none"></path></g><g stroke-linecap="round" transform="translate(104 94) rotate(0 141 167.5)"><path d="M32 0 C108.32 1.3, 188.42 -0.8, 250 0 M32 0 C78.44 -0.55, 124.19 0.11, 250 0 M250 0 C272.32 0.88, 280.19 9.93, 282 32 M250 0 C270.01 1.45, 282.93 12.1, 282 32 M282 32 C281.88 129, 281.8 227.84, 282 303 M282 32 C281.97 129.84, 280.54 228, 282 303 M282 303 C280.48 326.17, 270.97 336.6, 250 335 M282 303 C283.39 323.35, 270.61 335.71, 250 335 M250 335 C195.48 335.29, 142.74 334.24, 32 335 M250 335 C183.72 334.66, 119.38 334.26, 32 335 M32 335 C8.89 333.47, -1.22 323.03, 0 303 M32 335 C11.3 336.18, -1.72 326.57, 0 303 M0 303 C0.6 227.83, 1.25 154.26, 0 32 M0 303 C1.75 204.78, 1.72 106.27, 0 32 M0 32 C-1.47 9.38, 9.1 1.26, 32 0 M0 32 C-1.09 9.08, 11.3 -2.14, 32 0" stroke="#ff8383" stroke-width="2" fill="none"></path></g><g stroke-linecap="round"><g transform="translate(28 27) rotate(0 85.60420473832636 -0.445267438289207)"><path d="M1 -0.07 C29.48 -0.22, 142.95 -0.81, 171.14 -0.84 M0.07 -1.15 C28.38 -1.17, 141.51 -0.09, 170.26 0.26" stroke="#d3d3d3" stroke-width="2" fill="none"></path></g><g transform="translate(28 27) rotate(0 85.60420473832636 -0.445267438289207)"><path d="M146.68 8.56 C154.19 5.91, 160.52 1.55, 170.26 0.26 M146.68 8.56 C154.16 6.49, 159.33 4.69, 170.26 0.26" stroke="#d3d3d3" stroke-width="2" fill="none"></path></g><g transform="translate(28 27) rotate(0 85.60420473832636 -0.445267438289207)"><path d="M146.86 -8.54 C154.32 -5.66, 160.59 -4.5, 170.26 0.26 M146.86 -8.54 C154.31 -5.81, 159.43 -2.83, 170.26 0.26" stroke="#d3d3d3" stroke-width="2" fill="none"></path></g></g><mask></mask><g stroke-linecap="round"><g transform="translate(32 460) rotate(0 85.18441837501712 -0.4660758947298973)"><path d="M0.71 -0.27 C28.98 -0.56, 142.24 -0.77, 170.75 -0.67 M-0.38 -1.45 C27.62 -1.09, 141.04 0.58, 169.67 0.52" stroke="#d3d3d3" stroke-width="2" fill="none"></path></g><g transform="translate(32 460) rotate(0 85.18441837501712 -0.4660758947298973)"><path d="M146.11 8.89 C154.82 5.06, 163.39 3.49, 169.67 0.52 M146.11 8.89 C153.24 5.97, 161.13 2.71, 169.67 0.52" stroke="#d3d3d3" stroke-width="2" fill="none"></path></g><g transform="translate(32 460) rotate(0 85.18441837501712 -0.4660758947298973)"><path d="M146.24 -8.21 C155.06 -5.34, 163.57 -0.21, 169.67 0.52 M146.24 -8.21 C153.17 -5.51, 161.01 -3.17, 169.67 0.52" stroke="#d3d3d3" stroke-width="2" fill="none"></path></g></g><mask></mask><g stroke-linecap="round"><g transform="translate(31 51) rotate(0 135.21881851378828 -0.5449816459781403)"><path d="M0.24 0.23 C45.52 0.38, 226.24 0.58, 271.52 0.38 M-1.09 -0.7 C44.09 -0.87, 225.39 -1.63, 270.85 -1.55" stroke="#d3d3d3" stroke-width="2" fill="none"></path></g><g transform="translate(31 51) rotate(0 135.21881851378828 -0.5449816459781403)"><path d="M247.37 7.04 C254.54 5.39, 261.55 3.64, 270.85 -1.55 M247.37 7.04 C253.31 5.64, 258.48 4, 270.85 -1.55" stroke="#d3d3d3" stroke-width="2" fill="none"></path></g><g transform="translate(31 51) rotate(0 135.21881851378828 -0.5449816459781403)"><path d="M247.34 -10.06 C254.45 -6.79, 261.46 -3.62, 270.85 -1.55 M247.34 -10.06 C253.24 -7.78, 258.42 -5.73, 270.85 -1.55" stroke="#d3d3d3" stroke-width="2" fill="none"></path></g></g><mask></mask><g stroke-linecap="round"><g transform="translate(35 484) rotate(0 135.7634342659265 -0.00502727793525537)"><path d="M-0.25 -0.67 C44.93 -0.57, 226.75 0.13, 271.78 0.34 M1.82 1.6 C46.85 1.35, 226.17 -1.09, 271.24 -1.61" stroke="#d3d3d3" stroke-width="2" fill="none"></path></g><g transform="translate(35 484) rotate(0 135.7634342659265 -0.00502727793525537)"><path d="M247.85 7.24 C255.15 5.41, 265.22 -0.92, 271.24 -1.61 M247.85 7.24 C255.48 3.61, 264.14 1.45, 271.24 -1.61" stroke="#d3d3d3" stroke-width="2" fill="none"></path></g><g transform="translate(35 484) rotate(0 135.7634342659265 -0.00502727793525537)"><path d="M247.64 -9.86 C254.98 -5.56, 265.12 -5.74, 271.24 -1.61 M247.64 -9.86 C255.22 -7.58, 263.96 -3.81, 271.24 -1.61" stroke="#d3d3d3" stroke-width="2" fill="none"></path></g></g><mask></mask><g stroke-linecap="round"><g transform="translate(28 108) rotate(0 27.875793122127675 0.26291057064980805)"><path d="M-0.39 -0.67 C8.95 -0.68, 46.84 -0.96, 56.14 -1.11 M1.61 1.59 C10.8 1.87, 46.48 0.73, 55.27 0.37" stroke="#d3d3d3" stroke-width="2" fill="none"></path></g><g transform="translate(28 108) rotate(0 27.875793122127675 0.26291057064980805)"><path d="M32.09 9.73 C38.17 7.17, 46.21 3.06, 55.27 0.37 M32.09 9.73 C38.53 7.06, 43.09 5.27, 55.27 0.37" stroke="#d3d3d3" stroke-width="2" fill="none"></path></g><g transform="translate(28 108) rotate(0 27.875793122127675 0.26291057064980805)"><path d="M31.49 -7.36 C37.6 -4.68, 45.83 -3.54, 55.27 0.37 M31.49 -7.36 C38.13 -5.77, 42.83 -3.27, 55.27 0.37" stroke="#d3d3d3" stroke-width="2" fill="none"></path></g></g><mask></mask><g stroke-linecap="round"><g transform="translate(29 174) rotate(0 30.00631144765765 0.3637916407888895)"><path d="M-0.06 0.17 C10.24 0.34, 51.51 -0.13, 61.56 -0.02 M-1.55 -0.78 C8.66 -0.33, 50.2 1.55, 60.91 1.51" stroke="#d3d3d3" stroke-width="2" fill="none"></path></g><g transform="translate(29 174) rotate(0 30.00631144765765 0.3637916407888895)"><path d="M37.22 9.49 C44.26 8.18, 50.63 3.7, 60.91 1.51 M37.22 9.49 C45.54 6.59, 54.98 2.38, 60.91 1.51" stroke="#d3d3d3" stroke-width="2" fill="none"></path></g><g transform="translate(29 174) rotate(0 30.00631144765765 0.3637916407888895)"><path d="M37.63 -7.6 C44.42 -4.08, 50.67 -3.75, 60.91 1.51 M37.63 -7.6 C45.91 -4.14, 55.19 -1.99, 60.91 1.51" stroke="#d3d3d3" stroke-width="2" fill="none"></path></g></g><mask></mask><g stroke-linecap="round"><g transform="translate(32 201) rotate(0 27.066001294972352 -0.36141701936364257)"><path d="M0.28 -0.3 C9.49 -0.5, 46.09 -0.63, 55.16 -0.84 M-1.03 -1.5 C8.04 -1.52, 45.16 0.63, 54.3 0.78" stroke="#d3d3d3" stroke-width="2" fill="none"></path></g><g transform="translate(32 201) rotate(0 27.066001294972352 -0.36141701936364257)"><path d="M30.49 8.4 C36.91 6.39, 44.61 3.42, 54.3 0.78 M30.49 8.4 C36.73 6.72, 42.13 4.09, 54.3 0.78" stroke="#d3d3d3" stroke-width="2" fill="none"></path></g><g transform="translate(32 201) rotate(0 27.066001294972352 -0.36141701936364257)"><path d="M31.17 -8.69 C37.44 -5.71, 44.95 -3.7, 54.3 0.78 M31.17 -8.69 C37.34 -6.09, 42.57 -4.45, 54.3 0.78" stroke="#d3d3d3" stroke-width="2" fill="none"></path></g></g><mask></mask><g stroke-linecap="round"><g transform="translate(27 245) rotate(0 34.79939846131953 -0.1626585800945577)"><path d="M0.59 -0.3 C12.18 -0.35, 58.89 -0.23, 70.15 0.11 M-0.55 -1.5 C10.92 -1.46, 57.95 0.97, 69.81 1.18" stroke="#d3d3d3" stroke-width="2" fill="none"></path></g><g transform="translate(27 245) rotate(0 34.79939846131953 -0.1626585800945577)"><path d="M46.02 8.87 C53.89 7.96, 61.29 1.91, 69.81 1.18 M46.02 8.87 C53.61 5.54, 62.24 3.98, 69.81 1.18" stroke="#d3d3d3" stroke-width="2" fill="none"></path></g><g transform="translate(27 245) rotate(0 34.79939846131953 -0.1626585800945577)"><path d="M46.64 -8.22 C54.35 -3.1, 61.53 -3.11, 69.81 1.18 M46.64 -8.22 C54.05 -5.42, 62.46 -0.85, 69.81 1.18" stroke="#d3d3d3" stroke-width="2" fill="none"></path></g></g><mask></mask><g stroke-linecap="round"><g transform="translate(130 119) rotate(0 115.75649315007036 -0.21507861290464803)"><path d="M-0.6 -0.79 C38.05 -0.96, 193.44 -1.54, 232.11 -1.85 M1.29 1.41 C39.78 1.53, 193.04 0.28, 231.22 -0.23" stroke="#ff8383" stroke-width="2" fill="none"></path></g><g transform="translate(130 119) rotate(0 115.75649315007036 -0.21507861290464803)"><path d="M207.81 8.56 C213.99 6.06, 223 2.13, 231.22 -0.23 M207.81 8.56 C214 7.04, 220.17 4.66, 231.22 -0.23" stroke="#ff8383" stroke-width="2" fill="none"></path></g><g transform="translate(130 119) rotate(0 115.75649315007036 -0.21507861290464803)"><path d="M207.64 -8.54 C213.75 -5.6, 222.81 -4.1, 231.22 -0.23 M207.64 -8.54 C213.93 -5.81, 220.14 -3.95, 231.22 -0.23" stroke="#ff8383" stroke-width="2" fill="none"></path></g></g><mask></mask><g stroke-linecap="round"><g transform="translate(129 195) rotate(0 116.23590880904351 -0.8816661965101957)"><path d="M0.58 0.64 C39.4 0.38, 194.62 -1.91, 233.04 -2.41 M-0.57 -0.07 C38.17 -0.09, 193.62 -0.89, 232.64 -1.08" stroke="#ff8383" stroke-width="2" fill="none"></path></g><g transform="translate(129 195) rotate(0 116.23590880904351 -0.8816661965101957)"><path d="M209.19 7.59 C217.6 6.52, 223.12 0.66, 232.64 -1.08 M209.19 7.59 C215.44 5.78, 221.61 3.1, 232.64 -1.08" stroke="#ff8383" stroke-width="2" fill="none"></path></g><g transform="translate(129 195) rotate(0 116.23590880904351 -0.8816661965101957)"><path d="M209.11 -9.51 C217.42 -5.27, 222.97 -5.83, 232.64 -1.08 M209.11 -9.51 C215.43 -6.69, 221.62 -4.73, 232.64 -1.08" stroke="#ff8383" stroke-width="2" fill="none"></path></g></g><mask></mask><g stroke-linecap="round"><g transform="translate(128 145) rotate(0 115.89048623964186 -1.7450795241072683)"><path d="M-0.14 -0.12 C38.34 -0.2, 192.67 -1.13, 231.17 -1.51 M-1.67 -1.22 C37.17 -1.59, 194.31 -3.36, 233.45 -3.37" stroke="#ff8383" stroke-width="2" fill="none"></path></g><g transform="translate(128 145) rotate(0 115.89048623964186 -1.7450795241072683)"><path d="M210.02 5.33 C217.46 1.17, 226.04 -2.12, 233.45 -3.37 M210.02 5.33 C216.72 3.05, 223.07 0.93, 233.45 -3.37" stroke="#ff8383" stroke-width="2" fill="none"></path></g><g transform="translate(128 145) rotate(0 115.89048623964186 -1.7450795241072683)"><path d="M209.9 -11.77 C217.24 -10.41, 225.86 -8.17, 233.45 -3.37 M209.9 -11.77 C216.47 -9.5, 222.85 -7.08, 233.45 -3.37" stroke="#ff8383" stroke-width="2" fill="none"></path></g></g><mask></mask><g stroke-linecap="round"><g transform="translate(127 221) rotate(0 116.76522599443791 -1.3750381242483911)"><path d="M1.04 -0.41 C39.47 -0.9, 192.59 -2.24, 231.14 -2.34 M0.13 -1.66 C38.88 -2.04, 194.8 -0.79, 233.4 -0.99" stroke="#ff8383" stroke-width="2" fill="none"></path></g><g transform="translate(127 221) rotate(0 116.76522599443791 -1.3750381242483911)"><path d="M209.89 7.51 C217.36 2.91, 225.65 1.94, 233.4 -0.99 M209.89 7.51 C218.58 4.5, 227.48 1.32, 233.4 -0.99" stroke="#ff8383" stroke-width="2" fill="none"></path></g><g transform="translate(127 221) rotate(0 116.76522599443791 -1.3750381242483911)"><path d="M209.92 -9.59 C217.47 -8.23, 225.76 -3.25, 233.4 -0.99 M209.92 -9.59 C218.58 -6.08, 227.47 -2.73, 233.4 -0.99" stroke="#ff8383" stroke-width="2" fill="none"></path></g></g><mask></mask><g stroke-linecap="round"><g transform="translate(128 170) rotate(0 115.92576589472588 -1.1544956851750783)"><path d="M-0.95 0.76 C37.94 0.3, 194 -2.69, 232.8 -3.07 M0.75 0.11 C39.6 -0.21, 193.89 -1.47, 232.27 -2.09" stroke="#ff8383" stroke-width="2" fill="none"></path></g><g transform="translate(128 170) rotate(0 115.92576589472588 -1.1544956851750783)"><path d="M208.88 6.73 C216.17 5.99, 219.12 2.18, 232.27 -2.09 M208.88 6.73 C215.8 3.24, 224.64 0.04, 232.27 -2.09" stroke="#ff8383" stroke-width="2" fill="none"></path></g><g transform="translate(128 170) rotate(0 115.92576589472588 -1.1544956851750783)"><path d="M208.68 -10.37 C215.98 -6.73, 218.98 -6.15, 232.27 -2.09 M208.68 -10.37 C215.68 -8.08, 224.58 -5.5, 232.27 -2.09" stroke="#ff8383" stroke-width="2" fill="none"></path></g></g><mask></mask><g stroke-linecap="round"><g transform="translate(127 246) rotate(0 115.73470440618695 -1.4883602679148566)"><path d="M-0.86 -0.34 C37.69 -0.45, 193.54 -0.89, 232.33 -1.02 M0.89 -1.57 C39.21 -1.96, 193.19 -2.39, 231.56 -2.63" stroke="#ff8383" stroke-width="2" fill="none"></path></g><g transform="translate(127 246) rotate(0 115.73470440618695 -1.4883602679148566)"><path d="M208.1 6.02 C216.63 3.39, 227.91 -0.69, 231.56 -2.63 M208.1 6.02 C216.53 3.17, 225.73 0.27, 231.56 -2.63" stroke="#ff8383" stroke-width="2" fill="none"></path></g><g transform="translate(127 246) rotate(0 115.73470440618695 -1.4883602679148566)"><path d="M208.03 -11.08 C216.53 -7.09, 227.84 -4.55, 231.56 -2.63 M208.03 -11.08 C216.44 -7.55, 225.66 -4.07, 231.56 -2.63" stroke="#ff8383" stroke-width="2" fill="none"></path></g></g><mask></mask></svg>