<?xml version="1.0" standalone="no"?>
<!DOCTYPE svg PUBLIC "-//W3C//DTD SVG 1.1//EN" "http://www.w3.org/Graphics/SVG/1.1/DTD/svg11.dtd">
<svg version="1.1" xmlns="http://www.w3.org/2000/svg" viewBox="0 0 396 530.5" width="396" height="530.5"><!-- svg-source:excalidraw --><metadata></metadata><defs><style class="style-fonts">
      </style></defs><g stroke-linecap="round" transform="translate(10 443.5) rotate(0 188 38.5)"><path d="M19.25 0 C146.01 1.88, 272.96 1.16, 356.75 0 M19.25 0 C143.95 0.35, 270.62 0.75, 356.75 0 M356.75 0 C368.1 0.89, 375.5 5.19, 376 19.25 M356.75 0 C370.35 0.96, 374.96 8.22, 376 19.25 M376 19.25 C374.98 29.75, 377.11 43.02, 376 57.75 M376 19.25 C375.36 27.66, 375.65 35.5, 376 57.75 M376 57.75 C375.42 69.49, 371.18 78.84, 356.75 77 M376 57.75 C373.81 70.91, 367.54 75.77, 356.75 77 M356.75 77 C232.69 76.74, 110.32 75.44, 19.25 77 M356.75 77 C273.61 78.29, 189.47 78.21, 19.25 77 M19.25 77 C7.68 78.38, 1.6 70.67, 0 57.75 M19.25 77 C5.74 77.14, 0.84 71.53, 0 57.75 M0 57.75 C-1.11 44.08, -1.59 28.13, 0 19.25 M0 57.75 C-0.09 45.08, 0.66 33.11, 0 19.25 M0 19.25 C1.68 5.63, 7.32 1.82, 19.25 0 M0 19.25 C2.2 7.42, 4.19 0.93, 19.25 0" stroke="#d3d3d3" stroke-width="2" fill="none"></path></g><g stroke-linecap="round"><g transform="translate(28 460.5) rotate(0 85.61591335700825 -0.11324203133841593)"><path d="M-0.01 0.06 C28.54 0.21, 141.79 0.89, 170.35 0.86 M-1.48 -0.96 C27.56 -1.13, 144.02 -1.17, 172.71 -0.81" stroke="#d3d3d3" stroke-width="2" fill="none"></path></g><g transform="translate(28 460.5) rotate(0 85.61591335700825 -0.11324203133841593)"><path d="M149.18 7.62 C154.37 4.71, 160.8 4.46, 172.71 -0.81 M149.18 7.62 C157.05 5.93, 162.21 3.11, 172.71 -0.81" stroke="#d3d3d3" stroke-width="2" fill="none"></path></g><g transform="translate(28 460.5) rotate(0 85.61591335700825 -0.11324203133841593)"><path d="M149.26 -9.48 C154.43 -8.69, 160.84 -5.24, 172.71 -0.81 M149.26 -9.48 C156.94 -6.2, 162.07 -4.04, 172.71 -0.81" stroke="#d3d3d3" stroke-width="2" fill="none"></path></g></g><mask></mask><g stroke-linecap="round"><g transform="translate(31 484.5) rotate(0 135.3181345690042 0.6299586274009243)"><path d="M-0.65 0.86 C44.56 0.83, 226.21 -0.01, 271.29 -0.11 M1.2 0.26 C46.29 0.42, 225.35 1.13, 270.5 1.37" stroke="#d3d3d3" stroke-width="2" fill="none"></path></g><g transform="translate(31 484.5) rotate(0 135.3181345690042 0.6299586274009243)"><path d="M246.96 9.81 C255.42 7.9, 260.84 2.92, 270.5 1.37 M246.96 9.81 C253.71 7.35, 261.76 3.58, 270.5 1.37" stroke="#d3d3d3" stroke-width="2" fill="none"></path></g><g transform="translate(31 484.5) rotate(0 135.3181345690042 0.6299586274009243)"><path d="M247.04 -7.29 C255.48 -4.09, 260.88 -3.96, 270.5 1.37 M247.04 -7.29 C253.92 -4.25, 261.95 -2.52, 270.5 1.37" stroke="#d3d3d3" stroke-width="2" fill="none"></path></g></g><mask></mask><g stroke-linecap="round" transform="translate(10 10) rotate(0 188 38.5)"><path d="M19.25 0 C151.34 1.12, 281.96 1.62, 356.75 0 M19.25 0 C130.2 2.23, 240.79 2.56, 356.75 0 M356.75 0 C368.6 -0.94, 374 8.06, 376 19.25 M356.75 0 C371.53 2.03, 374.6 6.17, 376 19.25 M376 19.25 C377.31 28.11, 375.97 39.28, 376 57.75 M376 19.25 C377.11 32.53, 375.32 45.05, 376 57.75 M376 57.75 C375.62 70.05, 370.36 77.7, 356.75 77 M376 57.75 C377.63 72.13, 367.98 75.6, 356.75 77 M356.75 77 C287.57 77.06, 219.34 75.77, 19.25 77 M356.75 77 C246.47 75.04, 136.29 74.44, 19.25 77 M19.25 77 C7.4 78.58, 0.42 71.37, 0 57.75 M19.25 77 C5.43 77.8, 1.37 68.46, 0 57.75 M0 57.75 C-1.72 42.71, 0.43 32.68, 0 19.25 M0 57.75 C-1.13 44.23, 0.69 32.83, 0 19.25 M0 19.25 C0.53 6.83, 7.19 -1.37, 19.25 0 M0 19.25 C-0.74 5.37, 6.22 -1.71, 19.25 0" stroke="#d3d3d3" stroke-width="2" fill="none"></path></g><g stroke-linecap="round" transform="translate(11 91) rotate(0 44 30.5)"><path d="M15.25 0 C29.45 0.34, 42.69 0.65, 72.75 0 M15.25 0 C26.81 0.51, 38.01 -0.48, 72.75 0 M72.75 0 C80.92 1.64, 89.69 6.85, 88 15.25 M72.75 0 C81.52 -0.24, 86.72 4.36, 88 15.25 M88 15.25 C88.31 24.96, 88.8 32.94, 88 45.75 M88 15.25 C87.49 23.64, 88.11 30.81, 88 45.75 M88 45.75 C88.78 56.62, 84.33 62.35, 72.75 61 M88 45.75 C86.4 54.52, 80.67 62.15, 72.75 61 M72.75 61 C56.81 61.25, 44.22 61.46, 15.25 61 M72.75 61 C59.52 60.13, 48.75 61.8, 15.25 61 M15.25 61 C5.5 61.79, -0.86 56.62, 0 45.75 M15.25 61 C6.46 58.87, 1.02 58.12, 0 45.75 M0 45.75 C1.01 35.18, 0.81 23.34, 0 15.25 M0 45.75 C1.25 34.12, 0.52 21.69, 0 15.25 M0 15.25 C0.77 3.72, 4.44 -0.91, 15.25 0 M0 15.25 C-0.2 3.37, 4.74 1.02, 15.25 0" stroke="#d3d3d3" stroke-width="2" fill="none"></path></g><g stroke-linecap="round" transform="translate(11 157) rotate(0 44 30.5)"><path d="M15.25 0 C31.44 0.43, 44.55 0.43, 72.75 0 M15.25 0 C32.13 -0.77, 49 0.52, 72.75 0 M72.75 0 C84.61 1.77, 86.79 4.87, 88 15.25 M72.75 0 C81.64 -0.72, 87.51 6.73, 88 15.25 M88 15.25 C88.59 24.25, 87.2 33.83, 88 45.75 M88 15.25 C87.56 26.01, 88.14 37.67, 88 45.75 M88 45.75 C89.41 57.26, 81.52 59.78, 72.75 61 M88 45.75 C85.75 57.07, 81.83 59.37, 72.75 61 M72.75 61 C51.17 60.91, 26.83 59.81, 15.25 61 M72.75 61 C55.93 61.29, 38.34 60.89, 15.25 61 M15.25 61 C4.23 61.7, 1.19 54.07, 0 45.75 M15.25 61 C6.1 63.2, 2.16 54.36, 0 45.75 M0 45.75 C0.48 40.92, 1.83 31.24, 0 15.25 M0 45.75 C-0.04 39.26, 0.08 31.67, 0 15.25 M0 15.25 C-0.64 4.17, 4.91 -1.49, 15.25 0 M0 15.25 C-0.34 6.1, 4.52 1.59, 15.25 0" stroke="#d3d3d3" stroke-width="2" fill="none"></path></g><g stroke-linecap="round" transform="translate(12 225) rotate(0 44 30.5)"><path d="M15.25 0 C31.05 0.34, 50.81 -0.27, 72.75 0 M15.25 0 C34.48 1.09, 56.56 1.15, 72.75 0 M72.75 0 C81.7 -0.21, 86.89 4.45, 88 15.25 M72.75 0 C82.43 1.65, 87.37 5.19, 88 15.25 M88 15.25 C87.28 28.2, 89.32 35.6, 88 45.75 M88 15.25 C88.33 26.2, 88.65 37.13, 88 45.75 M88 45.75 C86.61 54.7, 80.96 62, 72.75 61 M88 45.75 C86.91 54.29, 84.85 59.37, 72.75 61 M72.75 61 C54.43 59.87, 39.61 59.02, 15.25 61 M72.75 61 C60.75 61.85, 47.9 61.8, 15.25 61 M15.25 61 C6.28 59.15, 0.89 57.83, 0 45.75 M15.25 61 C7.24 59.44, -2.05 56.84, 0 45.75 M0 45.75 C1.86 32.75, -1.7 25.03, 0 15.25 M0 45.75 C0.31 34.37, -0.4 23.91, 0 15.25 M0 15.25 C-0.17 3.6, 4.78 0.89, 15.25 0 M0 15.25 C-0.56 6.67, 7.25 0.34, 15.25 0" stroke="#d3d3d3" stroke-width="2" fill="none"></path></g><g stroke-linecap="round" transform="translate(104 94) rotate(0 141 167.5)"><path d="M32 0 C102.71 -0.57, 174.24 -1.31, 250 0 M32 0 C87.86 -0.79, 141.71 -1.65, 250 0 M250 0 C270.22 -0.63, 281.58 12.1, 282 32 M250 0 C270.7 0.11, 283.38 11.33, 282 32 M282 32 C282.11 121.32, 281.89 212.88, 282 303 M282 32 C283.38 106.55, 282.28 179.57, 282 303 M282 303 C280.04 325.34, 270.38 333.58, 250 335 M282 303 C283.94 322.7, 271.07 335.59, 250 335 M250 335 C184.9 332.22, 118.24 334.79, 32 335 M250 335 C167.01 336.05, 85.28 334.94, 32 335 M32 335 C11.55 336.92, 1.88 322.98, 0 303 M32 335 C8.62 335.92, 1.66 325.03, 0 303 M0 303 C-3.33 201.48, -1.28 97.27, 0 32 M0 303 C-1.07 215.75, -0.88 128.64, 0 32 M0 32 C-0.3 11.55, 10.18 1.38, 32 0 M0 32 C2.17 11, 11.38 -1.16, 32 0" stroke="#ff8383" stroke-width="2" fill="none"></path></g><g stroke-linecap="round"><g transform="translate(28 27) rotate(0 85.61252571361138 0.05935462681475201)"><path d="M-0.08 0.62 C28.27 0.52, 142.09 -0.63, 170.41 -0.57 M-1.58 -0.1 C27.15 -0.04, 143.87 0.8, 172.81 0.67" stroke="#d3d3d3" stroke-width="2" fill="none"></path></g><g transform="translate(28 27) rotate(0 85.61252571361138 0.05935462681475201)"><path d="M149.3 9.17 C157.94 5.45, 163.58 1.69, 172.81 0.67 M149.3 9.17 C157.6 5.61, 166.64 2.16, 172.81 0.67" stroke="#d3d3d3" stroke-width="2" fill="none"></path></g><g transform="translate(28 27) rotate(0 85.61252571361138 0.05935462681475201)"><path d="M149.34 -7.93 C157.97 -6.11, 163.6 -4.34, 172.81 0.67 M149.34 -7.93 C157.77 -4.96, 166.79 -1.88, 172.81 0.67" stroke="#d3d3d3" stroke-width="2" fill="none"></path></g></g><mask></mask><g stroke-linecap="round"><g transform="translate(31 51) rotate(0 135.64529731732785 0.5654592327587125)"><path d="M-0.59 -0.57 C44.39 -0.51, 224.37 0.71, 269.8 0.98 M1.3 1.75 C46.63 1.44, 226.8 -0.21, 271.88 -0.62" stroke="#d3d3d3" stroke-width="2" fill="none"></path></g><g transform="translate(31 51) rotate(0 135.64529731732785 0.5654592327587125)"><path d="M248.47 8.14 C254.35 3.69, 263.8 4.81, 271.88 -0.62 M248.47 8.14 C257.06 4.45, 266.5 2.08, 271.88 -0.62" stroke="#d3d3d3" stroke-width="2" fill="none"></path></g><g transform="translate(31 51) rotate(0 135.64529731732785 0.5654592327587125)"><path d="M248.31 -8.96 C254.32 -8.39, 263.82 -2.26, 271.88 -0.62 M248.31 -8.96 C256.86 -6.01, 266.36 -1.74, 271.88 -0.62" stroke="#d3d3d3" stroke-width="2" fill="none"></path></g></g><mask></mask><g stroke-linecap="round"><g transform="translate(28 108) rotate(0 27.907866476848767 -0.25480746065375115)"><path d="M-1.2 0.98 C8.4 1.09, 47.6 0.41, 57.01 0.06 M0.37 0.46 C9.96 0.3, 47.03 -1.45, 56.6 -1.51" stroke="#d3d3d3" stroke-width="2" fill="none"></path></g><g transform="translate(28 108) rotate(0 27.907866476848767 -0.25480746065375115)"><path d="M33.36 7.72 C40.87 7.33, 46.82 2.11, 56.6 -1.51 M33.36 7.72 C39.93 5.84, 46.59 2.5, 56.6 -1.51" stroke="#d3d3d3" stroke-width="2" fill="none"></path></g><g transform="translate(28 108) rotate(0 27.907866476848767 -0.25480746065375115)"><path d="M32.87 -9.38 C40.42 -5.48, 46.5 -6.41, 56.6 -1.51 M32.87 -9.38 C39.48 -6.31, 46.29 -4.7, 56.6 -1.51" stroke="#d3d3d3" stroke-width="2" fill="none"></path></g></g><mask></mask><g stroke-linecap="round"><g transform="translate(29 174) rotate(0 31.344600223768452 0.6079396677296813)"><path d="M1.01 1.06 C11.26 0.88, 50.38 0.11, 60.27 -0.13 M0.09 0.57 C10.83 0.49, 52.75 1.31, 62.6 1.34" stroke="#d3d3d3" stroke-width="2" fill="none"></path></g><g transform="translate(29 174) rotate(0 31.344600223768452 0.6079396677296813)"><path d="M39.01 9.61 C45.43 6.54, 48.17 4.99, 62.6 1.34 M39.01 9.61 C45.08 7.26, 52.3 5.29, 62.6 1.34" stroke="#d3d3d3" stroke-width="2" fill="none"></path></g><g transform="translate(29 174) rotate(0 31.344600223768452 0.6079396677296813)"><path d="M39.21 -7.49 C45.73 -7.14, 48.43 -5.27, 62.6 1.34 M39.21 -7.49 C45.2 -5.24, 52.36 -2.63, 62.6 1.34" stroke="#d3d3d3" stroke-width="2" fill="none"></path></g></g><mask></mask><g stroke-linecap="round"><g transform="translate(32 201) rotate(0 27.983380851121638 -0.7024319963154255)"><path d="M-0.73 -0.13 C8.16 -0.53, 45.09 -1.38, 54.33 -1.38 M1.09 -1.24 C10.28 -0.96, 47.9 0.09, 56.7 -0.04" stroke="#d3d3d3" stroke-width="2" fill="none"></path></g><g transform="translate(32 201) rotate(0 27.983380851121638 -0.7024319963154255)"><path d="M33.12 8.27 C41.9 4.1, 50.55 1.6, 56.7 -0.04 M33.12 8.27 C42.51 5.46, 51.01 1.68, 56.7 -0.04" stroke="#d3d3d3" stroke-width="2" fill="none"></path></g><g transform="translate(32 201) rotate(0 27.983380851121638 -0.7024319963154255)"><path d="M33.29 -8.83 C42.16 -6.42, 50.74 -2.35, 56.7 -0.04 M33.29 -8.83 C42.57 -5.29, 51.01 -2.71, 56.7 -0.04" stroke="#d3d3d3" stroke-width="2" fill="none"></path></g></g><mask></mask><g stroke-linecap="round"><g transform="translate(27 245) rotate(0 34.039654074981854 0.11991230729037738)"><path d="M-0.67 -0.38 C10.91 -0.05, 57.19 1.62, 68.75 1.86 M1.18 -1.62 C12.65 -1.61, 56.57 -0.48, 67.66 0.19" stroke="#d3d3d3" stroke-width="2" fill="none"></path></g><g transform="translate(27 245) rotate(0 34.039654074981854 0.11991230729037738)"><path d="M43.85 7.79 C48.93 5.68, 56.69 3.74, 67.66 0.19 M43.85 7.79 C51.4 5, 59.29 3.71, 67.66 0.19" stroke="#d3d3d3" stroke-width="2" fill="none"></path></g><g transform="translate(27 245) rotate(0 34.039654074981854 0.11991230729037738)"><path d="M44.53 -9.29 C49.43 -7.32, 57.03 -5.18, 67.66 0.19 M44.53 -9.29 C51.98 -6.88, 59.66 -2.96, 67.66 0.19" stroke="#d3d3d3" stroke-width="2" fill="none"></path></g></g><mask></mask><g stroke-linecap="round"><g transform="translate(317.33108813073136 158.40000889279605) rotate(90.5029334422235 41.883364898002924 -0.541608922556037)"><path d="M-0.25 0.86 C13.86 0.6, 69.8 -1.53, 84.02 -1.94 M1.81 0.27 C15.8 0.25, 69.09 0.3, 82.9 -0.38" stroke="#ff8383" stroke-width="2" fill="none"></path></g><g transform="translate(317.33108813073136 158.40000889279605) rotate(90.5029334422235 41.883364898002924 -0.541608922556037)"><path d="M59.59 8.66 C66.75 5.95, 71.11 5.49, 82.9 -0.38 M59.59 8.66 C68.21 6.4, 74.08 3.29, 82.9 -0.38" stroke="#ff8383" stroke-width="2" fill="none"></path></g><g transform="translate(317.33108813073136 158.40000889279605) rotate(90.5029334422235 41.883364898002924 -0.541608922556037)"><path d="M59.23 -8.44 C66.43 -6.97, 70.87 -3.24, 82.9 -0.38 M59.23 -8.44 C68.03 -5.07, 74.02 -2.57, 82.9 -0.38" stroke="#ff8383" stroke-width="2" fill="none"></path></g></g><mask></mask><g stroke-linecap="round"><g transform="translate(318.33108813073136 275.40000889279605) rotate(90.5029334422235 41.69417068168434 -0.37253811582922935)"><path d="M-0.11 -0.62 C14.12 -0.69, 70.88 -0.77, 85.01 -0.88 M-1.62 1.67 C12.54 1.33, 70.13 -1.6, 84.41 -2.41" stroke="#ff8383" stroke-width="2" fill="none"></path></g><g transform="translate(318.33108813073136 275.40000889279605) rotate(90.5029334422235 41.69417068168434 -0.37253811582922935)"><path d="M61.4 7.37 C66.59 5.86, 75.67 2.65, 84.41 -2.41 M61.4 7.37 C70.48 3.06, 79.02 -0.65, 84.41 -2.41" stroke="#ff8383" stroke-width="2" fill="none"></path></g><g transform="translate(318.33108813073136 275.40000889279605) rotate(90.5029334422235 41.69417068168434 -0.37253811582922935)"><path d="M60.5 -9.71 C65.86 -6.63, 75.19 -5.25, 84.41 -2.41 M60.5 -9.71 C69.89 -7.84, 78.77 -5.38, 84.41 -2.41" stroke="#ff8383" stroke-width="2" fill="none"></path></g></g><mask></mask><g stroke-linecap="round"><g transform="translate(242.07294699158342 159.09609221607315) rotate(90.5029334422235 42.37132956389257 -1.7696436458546714)"><path d="M-0.33 0.06 C13.89 -0.36, 70.89 -1.23, 85.07 -1.65 M1.7 -0.96 C15.85 -1.83, 70.75 -3.52, 84.5 -3.59" stroke="#ff8383" stroke-width="2" fill="none"></path></g><g transform="translate(242.07294699158342 159.09609221607315) rotate(90.5029334422235 42.37132956389257 -1.7696436458546714)"><path d="M61.19 5.44 C67.72 4.19, 74.7 1.15, 84.5 -3.59 M61.19 5.44 C66.34 3.43, 73.01 0.34, 84.5 -3.59" stroke="#ff8383" stroke-width="2" fill="none"></path></g><g transform="translate(242.07294699158342 159.09609221607315) rotate(90.5029334422235 42.37132956389257 -1.7696436458546714)"><path d="M60.84 -11.66 C67.59 -8.14, 74.67 -6.41, 84.5 -3.59 M60.84 -11.66 C66.25 -9.24, 73.01 -7.89, 84.5 -3.59" stroke="#ff8383" stroke-width="2" fill="none"></path></g></g><mask></mask><g stroke-linecap="round"><g transform="translate(243.07294699158342 276.09609221607315) rotate(90.5029334422235 42.10394275128772 -0.936839783228919)"><path d="M0.66 1.12 C14.79 1.01, 70.72 -0.75, 84.66 -1.26 M-0.45 0.66 C13.55 0.27, 69.89 -2.79, 83.88 -3" stroke="#ff8383" stroke-width="2" fill="none"></path></g><g transform="translate(243.07294699158342 276.09609221607315) rotate(90.5029334422235 42.10394275128772 -0.936839783228919)"><path d="M60.72 6.42 C69.38 4.07, 75.48 0.71, 83.88 -3 M60.72 6.42 C68.73 2.78, 74.96 1.75, 83.88 -3" stroke="#ff8383" stroke-width="2" fill="none"></path></g><g transform="translate(243.07294699158342 276.09609221607315) rotate(90.5029334422235 42.10394275128772 -0.936839783228919)"><path d="M60.08 -10.67 C68.84 -8.05, 75.13 -6.43, 83.88 -3 M60.08 -10.67 C68.42 -9.07, 74.84 -4.85, 83.88 -3" stroke="#ff8383" stroke-width="2" fill="none"></path></g></g><mask></mask><g stroke-linecap="round"><g transform="translate(163.07294699158342 158.09609221607315) rotate(90.5029334422235 41.70577775467109 -1.2506046902388164)"><path d="M-1.02 0.18 C12.94 -0.18, 70.13 -2.37, 84.43 -2.68 M0.65 -0.77 C14.39 -0.95, 69.58 -1.59, 83.52 -1.5" stroke="#ff8383" stroke-width="2" fill="none"></path></g><g transform="translate(163.07294699158342 158.09609221607315) rotate(90.5029334422235 41.70577775467109 -1.2506046902388164)"><path d="M60.06 7.14 C68.83 4.36, 75.83 1.87, 83.52 -1.5 M60.06 7.14 C67.62 5.44, 74.92 1.89, 83.52 -1.5" stroke="#ff8383" stroke-width="2" fill="none"></path></g><g transform="translate(163.07294699158342 158.09609221607315) rotate(90.5029334422235 41.70577775467109 -1.2506046902388164)"><path d="M59.99 -9.96 C68.71 -6.59, 75.74 -2.93, 83.52 -1.5 M59.99 -9.96 C67.41 -6.1, 74.73 -4.1, 83.52 -1.5" stroke="#ff8383" stroke-width="2" fill="none"></path></g></g><mask></mask><g stroke-linecap="round"><g transform="translate(164.07294699158342 275.09609221607315) rotate(90.5029334422235 41.65308714583432 -0.5902545940130892)"><path d="M0.31 0.74 C14.25 0.23, 70.13 -1.31, 84.29 -1.92 M-0.99 0.08 C12.73 0.3, 68.99 0.02, 83.31 -0.34" stroke="#ff8383" stroke-width="2" fill="none"></path></g><g transform="translate(164.07294699158342 275.09609221607315) rotate(90.5029334422235 41.65308714583432 -0.5902545940130892)"><path d="M59.93 8.52 C69.38 5.21, 76.58 3.67, 83.31 -0.34 M59.93 8.52 C65.21 7.68, 70.09 4, 83.31 -0.34" stroke="#ff8383" stroke-width="2" fill="none"></path></g><g transform="translate(164.07294699158342 275.09609221607315) rotate(90.5029334422235 41.65308714583432 -0.5902545940130892)"><path d="M59.71 -8.58 C69.39 -5.82, 76.67 -1.29, 83.31 -0.34 M59.71 -8.58 C65.2 -5.58, 70.14 -5.42, 83.31 -0.34" stroke="#ff8383" stroke-width="2" fill="none"></path></g></g><mask></mask><g stroke-linecap="round"><g transform="translate(291.54530934614286 158.29618070053255) rotate(90.5029334422235 42.20199098371825 -1.0698888707906065)"><path d="M0.72 0.35 C14.9 -0.08, 70.63 -2.22, 84.76 -2.49 M-0.36 -0.52 C13.73 -0.78, 69.74 -0.75, 84.03 -1.2" stroke="#ff8383" stroke-width="2" fill="none"></path></g><g transform="translate(291.54530934614286 158.29618070053255) rotate(90.5029334422235 42.20199098371825 -1.0698888707906065)"><path d="M60.66 7.66 C67.6 5.79, 72.58 4.65, 84.03 -1.2 M60.66 7.66 C68.99 4.08, 78.03 1.49, 84.03 -1.2" stroke="#ff8383" stroke-width="2" fill="none"></path></g><g transform="translate(291.54530934614286 158.29618070053255) rotate(90.5029334422235 42.20199098371825 -1.0698888707906065)"><path d="M60.42 -9.44 C67.44 -6.65, 72.48 -3.13, 84.03 -1.2 M60.42 -9.44 C68.71 -6.84, 77.83 -3.24, 84.03 -1.2" stroke="#ff8383" stroke-width="2" fill="none"></path></g></g><mask></mask><g stroke-linecap="round"><g transform="translate(292.54530934614286 275.29618070053255) rotate(90.5029334422235 41.850800795256305 -1.4116542469710112)"><path d="M-0.06 0.08 C14.1 -0.53, 70.99 -2.37, 85.25 -2.9 M-1.55 -0.92 C12.5 -1.47, 70.29 -1.6, 84.78 -1.84" stroke="#ff8383" stroke-width="2" fill="none"></path></g><g transform="translate(292.54530934614286 275.29618070053255) rotate(90.5029334422235 41.850800795256305 -1.4116542469710112)"><path d="M61.36 6.92 C69.07 5.58, 75.06 3.18, 84.78 -1.84 M61.36 6.92 C65.94 4.13, 70.62 4.03, 84.78 -1.84" stroke="#ff8383" stroke-width="2" fill="none"></path></g><g transform="translate(292.54530934614286 275.29618070053255) rotate(90.5029334422235 41.850800795256305 -1.4116542469710112)"><path d="M61.21 -10.18 C69.07 -5.95, 75.12 -2.77, 84.78 -1.84 M61.21 -10.18 C65.84 -9.43, 70.54 -5.99, 84.78 -1.84" stroke="#ff8383" stroke-width="2" fill="none"></path></g></g><mask></mask><g stroke-linecap="round"><g transform="translate(216.0733301055884 158.08725273411034) rotate(90.5029334422235 42.34832374819473 -1.739433322222908)"><path d="M0.41 -0.49 C14.55 -0.75, 71.7 -1.1, 85.53 -1.26 M-0.83 -1.79 C13.18 -2.43, 70.77 -2.71, 85.2 -2.99" stroke="#ff8383" stroke-width="2" fill="none"></path></g><g transform="translate(216.0733301055884 158.08725273411034) rotate(90.5029334422235 42.34832374819473 -1.739433322222908)"><path d="M61.81 5.83 C69.4 4.54, 79.87 -2.23, 85.2 -2.99 M61.81 5.83 C70.35 3.18, 78.79 0.43, 85.2 -2.99" stroke="#ff8383" stroke-width="2" fill="none"></path></g><g transform="translate(216.0733301055884 158.08725273411034) rotate(90.5029334422235 42.34832374819473 -1.739433322222908)"><path d="M61.61 -11.27 C69.32 -6.4, 79.86 -7.01, 85.2 -2.99 M61.61 -11.27 C70.18 -7.98, 78.7 -4.78, 85.2 -2.99" stroke="#ff8383" stroke-width="2" fill="none"></path></g></g><mask></mask><g stroke-linecap="round"><g transform="translate(217.0733301055884 275.08725273411034) rotate(90.5029334422235 42.72041637167251 -0.9399258748147759)"><path d="M0.9 -0.9 C15.17 -1.44, 71.6 -3.12, 85.53 -3.12 M-0.09 1.24 C14.13 0.8, 71.22 -1.52, 85.19 -2.17" stroke="#ff8383" stroke-width="2" fill="none"></path></g><g transform="translate(217.0733301055884 275.08725273411034) rotate(90.5029334422235 42.72041637167251 -0.9399258748147759)"><path d="M62.09 7.38 C67.39 6.35, 73.85 1.79, 85.19 -2.17 M62.09 7.38 C70.77 4.76, 80.63 0.16, 85.19 -2.17" stroke="#ff8383" stroke-width="2" fill="none"></path></g><g transform="translate(217.0733301055884 275.08725273411034) rotate(90.5029334422235 42.72041637167251 -0.9399258748147759)"><path d="M61.36 -9.7 C66.89 -5.7, 73.57 -5.22, 85.19 -2.17 M61.36 -9.7 C70.28 -5.6, 80.43 -3.49, 85.19 -2.17" stroke="#ff8383" stroke-width="2" fill="none"></path></g></g><mask></mask><g stroke-linecap="round"><g transform="translate(137.0733301055884 157.08725273411034) rotate(90.5029334422235 41.72715371474544 -1.0447261916100956)"><path d="M0.08 -0.68 C14.38 -0.99, 70.95 -1.31, 84.8 -1.7 M-1.34 1.58 C12.93 0.87, 69.61 -3.03, 84.08 -3.67" stroke="#ff8383" stroke-width="2" fill="none"></path></g><g transform="translate(137.0733301055884 157.08725273411034) rotate(90.5029334422235 41.72715371474544 -1.0447261916100956)"><path d="M61.12 6.23 C64.92 4.82, 71.49 0, 84.08 -3.67 M61.12 6.23 C65.57 4.07, 71.48 1.63, 84.08 -3.67" stroke="#ff8383" stroke-width="2" fill="none"></path></g><g transform="translate(137.0733301055884 157.08725273411034) rotate(90.5029334422235 41.72715371474544 -1.0447261916100956)"><path d="M60.14 -10.85 C64.17 -8.57, 70.95 -9.72, 84.08 -3.67 M60.14 -10.85 C64.77 -9.37, 70.89 -8.16, 84.08 -3.67" stroke="#ff8383" stroke-width="2" fill="none"></path></g></g><mask></mask><g stroke-linecap="round"><g transform="translate(138.0733301055884 274.08725273411034) rotate(90.5029334422235 42.40705853938971 -0.7540542806684982)"><path d="M1.17 -1.12 C15.1 -1.11, 70.67 -0.58, 84.48 -0.88 M0.33 0.91 C14.04 0.69, 69.81 -1.92, 83.6 -2.42" stroke="#ff8383" stroke-width="2" fill="none"></path></g><g transform="translate(138.0733301055884 274.08725273411034) rotate(90.5029334422235 42.40705853938971 -0.7540542806684982)"><path d="M60.49 7.1 C67.37 3.52, 79.76 -0.78, 83.6 -2.42 M60.49 7.1 C66.06 4.86, 70.78 1.96, 83.6 -2.42" stroke="#ff8383" stroke-width="2" fill="none"></path></g><g transform="translate(138.0733301055884 274.08725273411034) rotate(90.5029334422235 42.40705853938971 -0.7540542806684982)"><path d="M59.77 -9.98 C66.79 -7.16, 79.45 -5.06, 83.6 -2.42 M59.77 -9.98 C65.44 -8.41, 70.31 -7.48, 83.6 -2.42" stroke="#ff8383" stroke-width="2" fill="none"></path></g></g><mask></mask><g stroke-linecap="round"><g transform="translate(265.9688369345581 159.01968584628486) rotate(90.5029334422235 42.95806250287137 -1.2551685835141768)"><path d="M1.18 0.74 C15.01 0.58, 69.55 -0.92, 83.38 -1.43 M0.34 0.08 C14.5 -0.39, 71.76 -3.04, 85.58 -3.25" stroke="#ff8383" stroke-width="2" fill="none"></path></g><g transform="translate(265.9688369345581 159.01968584628486) rotate(90.5029334422235 42.95806250287137 -1.2551685835141768)"><path d="M62.38 6.07 C71.41 1.11, 78.88 -0.77, 85.58 -3.25 M62.38 6.07 C69.39 4.12, 74.32 0.29, 85.58 -3.25" stroke="#ff8383" stroke-width="2" fill="none"></path></g><g transform="translate(265.9688369345581 159.01968584628486) rotate(90.5029334422235 42.95806250287137 -1.2551685835141768)"><path d="M61.82 -11.02 C70.96 -10.28, 78.62 -6.44, 85.58 -3.25 M61.82 -11.02 C69.04 -8.31, 74.13 -7.47, 85.58 -3.25" stroke="#ff8383" stroke-width="2" fill="none"></path></g></g><mask></mask><g stroke-linecap="round"><g transform="translate(266.9688369345581 276.01968584628486) rotate(90.5029334422235 41.39030020490213 -0.897686244174821)"><path d="M0.13 1.12 C13.94 0.82, 70.09 -2.58, 84.04 -2.91 M-1.26 0.66 C12.26 0.58, 68.92 -1.31, 82.93 -1.85" stroke="#ff8383" stroke-width="2" fill="none"></path></g><g transform="translate(266.9688369345581 276.01968584628486) rotate(90.5029334422235 41.39030020490213 -0.897686244174821)"><path d="M59.75 7.52 C70.92 3.25, 76.76 -0.82, 82.93 -1.85 M59.75 7.52 C68.78 3.13, 78.02 0.52, 82.93 -1.85" stroke="#ff8383" stroke-width="2" fill="none"></path></g><g transform="translate(266.9688369345581 276.01968584628486) rotate(90.5029334422235 41.39030020490213 -0.897686244174821)"><path d="M59.15 -9.57 C70.4 -7.05, 76.48 -4.31, 82.93 -1.85 M59.15 -9.57 C68.48 -7.2, 77.95 -3.05, 82.93 -1.85" stroke="#ff8383" stroke-width="2" fill="none"></path></g></g><mask></mask><g stroke-linecap="round"><g transform="translate(190.9899303179659 156.22342005646436) rotate(90.5029334422235 41.57549611929721 -0.8754258204251641)"><path d="M-0.97 0.57 C12.85 0.06, 69.83 -1.96, 84.12 -2.32 M0.72 -0.17 C14.26 -0.57, 69.13 -0.37, 83.06 -0.95" stroke="#ff8383" stroke-width="2" fill="none"></path></g><g transform="translate(190.9899303179659 156.22342005646436) rotate(90.5029334422235 41.57549611929721 -0.8754258204251641)"><path d="M59.71 7.98 C69.9 4.23, 77.71 1.84, 83.06 -0.95 M59.71 7.98 C66.77 4.22, 74.31 2.34, 83.06 -0.95" stroke="#ff8383" stroke-width="2" fill="none"></path></g><g transform="translate(190.9899303179659 156.22342005646436) rotate(90.5029334422235 41.57549611929721 -0.8754258204251641)"><path d="M59.43 -9.12 C69.84 -6.05, 77.75 -1.65, 83.06 -0.95 M59.43 -9.12 C66.7 -7.15, 74.34 -3.31, 83.06 -0.95" stroke="#ff8383" stroke-width="2" fill="none"></path></g></g><mask></mask><g stroke-linecap="round"><g transform="translate(191.9899303179659 273.22342005646436) rotate(90.5029334422235 41.76293770302016 -0.575264699012024)"><path d="M-0.31 -0.91 C13.64 -1.24, 69.65 -0.69, 83.84 -0.85 M1.73 1.22 C15.46 1.1, 68.87 -2.09, 82.62 -2.37" stroke="#ff8383" stroke-width="2" fill="none"></path></g><g transform="translate(191.9899303179659 273.22342005646436) rotate(90.5029334422235 41.76293770302016 -0.575264699012024)"><path d="M59.51 7.15 C65.08 3.39, 75.7 2, 82.62 -2.37 M59.51 7.15 C66.67 4.79, 74.23 1.24, 82.62 -2.37" stroke="#ff8383" stroke-width="2" fill="none"></path></g><g transform="translate(191.9899303179659 273.22342005646436) rotate(90.5029334422235 41.76293770302016 -0.575264699012024)"><path d="M58.79 -9.93 C64.75 -8.38, 75.59 -4.46, 82.62 -2.37 M58.79 -9.93 C66.15 -6.98, 73.94 -5.22, 82.62 -2.37" stroke="#ff8383" stroke-width="2" fill="none"></path></g></g><mask></mask><g stroke-linecap="round"><g transform="translate(111.9899303179659 155.22342005646436) rotate(90.5029334422235 42.25091483961705 -1.3700248610228414)"><path d="M0.45 0.3 C14.3 -0.1, 69.23 -2.84, 83.18 -3.04 M-0.78 -0.59 C13.41 -0.81, 71.26 -1.7, 85.28 -2.05" stroke="#ff8383" stroke-width="2" fill="none"></path></g><g transform="translate(111.9899303179659 155.22342005646436) rotate(90.5029334422235 42.25091483961705 -1.3700248610228414)"><path d="M61.96 6.96 C69.65 2.17, 74.57 1.07, 85.28 -2.05 M61.96 6.96 C71.65 3.24, 79.36 0.61, 85.28 -2.05" stroke="#ff8383" stroke-width="2" fill="none"></path></g><g transform="translate(111.9899303179659 155.22342005646436) rotate(90.5029334422235 42.25091483961705 -1.3700248610228414)"><path d="M61.63 -10.14 C69.33 -9.7, 74.35 -5.55, 85.28 -2.05 M61.63 -10.14 C71.37 -7.18, 79.21 -3.14, 85.28 -2.05" stroke="#ff8383" stroke-width="2" fill="none"></path></g></g><mask></mask><g stroke-linecap="round"><g transform="translate(112.9899303179659 272.22342005646436) rotate(90.5029334422235 42.13273575533094 -0.3609548341482878)"><path d="M-0.51 1.15 C13.67 0.99, 70.66 -1.21, 84.78 -1.87 M1.42 0.7 C15.5 0.84, 70.4 0.17, 84.06 -0.26" stroke="#ff8383" stroke-width="2" fill="none"></path></g><g transform="translate(112.9899303179659 272.22342005646436) rotate(90.5029334422235 42.13273575533094 -0.3609548341482878)"><path d="M60.74 8.76 C69.11 7.1, 73.81 3.69, 84.06 -0.26 M60.74 8.76 C66.55 6.4, 71.4 3.67, 84.06 -0.26" stroke="#ff8383" stroke-width="2" fill="none"></path></g><g transform="translate(112.9899303179659 272.22342005646436) rotate(90.5029334422235 42.13273575533094 -0.3609548341482878)"><path d="M60.4 -8.34 C68.73 -5.31, 73.53 -4.03, 84.06 -0.26 M60.4 -8.34 C66.28 -6.69, 71.21 -5.41, 84.06 -0.26" stroke="#ff8383" stroke-width="2" fill="none"></path></g></g><mask></mask><g stroke-linecap="round"><g transform="translate(86.9899303179659 156.22342005646436) rotate(90.5029334422235 42.46309417975988 -1.6330228734761363)"><path d="M0.72 -0.12 C14.74 -0.56, 69.41 -2.82, 83.19 -3.15 M-0.37 -1.23 C14.09 -1.51, 70.93 -2.29, 85.29 -2.21" stroke="#ff8383" stroke-width="2" fill="none"></path></g><g transform="translate(86.9899303179659 156.22342005646436) rotate(90.5029334422235 42.46309417975988 -1.6330228734761363)"><path d="M61.85 6.47 C66.82 2.5, 70.24 0.97, 85.29 -2.21 M61.85 6.47 C69.2 4.15, 74.95 2.12, 85.29 -2.21" stroke="#ff8383" stroke-width="2" fill="none"></path></g><g transform="translate(86.9899303179659 156.22342005646436) rotate(90.5029334422235 42.46309417975988 -1.6330228734761363)"><path d="M61.75 -10.63 C66.67 -10.86, 70.12 -8.64, 85.29 -2.21 M61.75 -10.63 C69.22 -7.89, 75 -4.86, 85.29 -2.21" stroke="#ff8383" stroke-width="2" fill="none"></path></g></g><mask></mask><g stroke-linecap="round"><g transform="translate(87.9899303179659 273.22342005646436) rotate(90.5029334422235 41.70785613596365 -1.3268315684050265)"><path d="M0.43 0.13 C14.55 -0.52, 70.24 -2.52, 84.22 -2.79 M-0.81 -0.84 C13.19 -0.85, 69.15 -1.21, 83.2 -1.66" stroke="#ff8383" stroke-width="2" fill="none"></path></g><g transform="translate(87.9899303179659 273.22342005646436) rotate(90.5029334422235 41.70785613596365 -1.3268315684050265)"><path d="M59.86 7.29 C66 4.69, 70.47 2.53, 83.2 -1.66 M59.86 7.29 C67.59 3.49, 75.61 2.15, 83.2 -1.66" stroke="#ff8383" stroke-width="2" fill="none"></path></g><g transform="translate(87.9899303179659 273.22342005646436) rotate(90.5029334422235 41.70785613596365 -1.3268315684050265)"><path d="M59.57 -9.81 C65.94 -8.01, 70.49 -5.77, 83.2 -1.66 M59.57 -9.81 C67.45 -7.72, 75.58 -3.17, 83.2 -1.66" stroke="#ff8383" stroke-width="2" fill="none"></path></g></g><mask></mask></svg>